g pSphere3_polySurface2
v -0.119895 1.40829 0.935704
v -0.25448 1.354699 0.602302
v 0.018941 1.384116 0.64059
v 0.018941 1.437707 0.985277
v 0.018941 1.437707 0.985277
v 0.018941 1.384116 0.64059
v 0.292361 1.354699 0.602302
v 0.157776 1.40829 0.935704
v -0.25448 1.354699 0.602302
v -0.222889 1.274387 0.374659
v 0.018941 1.303803 0.400721
v 0.018941 1.384116 0.64059
v 0.018941 1.384116 0.64059
v 0.018941 1.303803 0.400721
v 0.26077 1.274387 0.374659
v 0.292361 1.354699 0.602302
v -0.222889 1.274387 0.374659
v -0.039485 1.161446 0.158163
v 0.018941 1.161446 0.171356
v 0.018941 1.303803 0.400721
v 0.077366 1.161446 0.158163
v 0.26077 1.274387 0.374659
v -0.039485 1.161446 0.158163
v -0.006713 1.077973 0.013035
v 0.018941 1.077973 0.026228
v 0.018941 1.161446 0.171356
v 0.018941 1.161446 0.171356
v 0.018941 1.077973 0.026228
v 0.044594 1.077973 0.013035
v 0.077366 1.161446 0.158163
vt 0.65 0.8
vt 0.65 0.85
vt 0.7 0.85
vt 0.7 0.8
vt 0.7 0.8
vt 0.7 0.85
vt 0.75 0.85
vt 0.75 0.8
vt 0.65 0.85
vt 0.65 0.9
vt 0.7 0.9
vt 0.7 0.85
vt 0.7 0.85
vt 0.7 0.9
vt 0.75 0.9
vt 0.75 0.85
vt 0.65 0.9
vt 0.65 0.95
vt 0.7 0.95
vt 0.7 0.9
vt 0.75 0.95
vt 0.75 0.9
vt 0 0
vt 0 1
vt 1 1
vt 1 0
vt 0 0
vt 0 1
vt 1 1
vt 1 0
vn -0.112098 0.9847028 -0.133396
vn -0.112098 0.9847028 -0.133396
vn -0.112098 0.9847028 -0.133396
vn -0.112098 0.9847028 -0.133396
vn 0.112098 0.9847028 -0.133396
vn 0.112098 0.9847028 -0.133396
vn 0.112098 0.9847028 -0.133396
vn 0.112098 0.9847028 -0.133396
vn -0.06659602 0.9422463 -0.3282331
vn -0.06659602 0.9422463 -0.3282331
vn -0.06659599 0.9422459 -0.3282339
vn -0.06659602 0.9422463 -0.3282331
vn 0.06659602 0.9422463 -0.3282331
vn 0.06659602 0.9422463 -0.3282331
vn 0.06659602 0.9422463 -0.3282331
vn 0.06659602 0.9422463 -0.3282331
vn -0.018955 0.8642688 -0.5026729
vn -0.018955 0.8642688 -0.5026729
vn -0.018955 0.8642688 -0.5026729
vn -0.018955 0.8642688 -0.5026729
vn 0.01895501 0.8642693 -0.5026721
vn 0.018955 0.8642688 -0.5026729
vn 0.150656 0.8642052 -0.4800541
vn 0.150656 0.8642052 -0.4800541
vn 0.150656 0.8642052 -0.4800541
vn 0.150656 0.8642052 -0.4800541
vn -0.150657 0.8642052 -0.4800541
vn -0.150657 0.8642052 -0.4800541
vn -0.150657 0.8642052 -0.4800541
vn -0.150657 0.8642052 -0.4800541
g pSphere3_polySurface2_0
f 3/3/3 2/2/2 1/1/1
f 4/4/4 3/3/3 1/1/1
f 7/7/7 6/6/6 5/5/5
f 8/8/8 7/7/7 5/5/5
f 11/11/11 10/10/10 9/9/9
f 12/12/12 11/11/11 9/9/9
f 15/15/15 14/14/14 13/13/13
f 16/16/16 15/15/15 13/13/13
f 19/19/19 18/18/18 17/17/17
f 20/20/20 19/19/19 17/17/17
f 21/21/21 19/19/19 20/20/20
f 22/22/22 21/21/21 20/20/20
f 25/25/25 24/24/24 23/23/23
f 26/26/26 25/25/25 23/23/23
f 29/29/29 28/28/28 27/27/27
f 30/30/30 29/29/29 27/27/27
